<mxfile host="app.diagrams.net" modified="2023-05-05T22:43:17.998Z" agent="Mozilla/5.0 (Windows NT 10.0; Win64; x64) AppleWebKit/537.36 (KHTML, like Gecko) Chrome/114.0.0.0 Safari/537.36 Edg/114.0.0.0" etag="jggEcnzR7yqToIVhtW-7" version="21.2.7" type="device">
  <diagram id="R2lEEEUBdFMjLlhIrx00" name="Page-1">
    <mxGraphModel dx="1018" dy="639" grid="1" gridSize="10" guides="1" tooltips="1" connect="1" arrows="1" fold="1" page="1" pageScale="1" pageWidth="850" pageHeight="1100" math="0" shadow="0" extFonts="Permanent Marker^https://fonts.googleapis.com/css?family=Permanent+Marker">
      <root>
        <mxCell id="0" />
        <mxCell id="1" parent="0" />
        <mxCell id="sPYCTpjB2aresk962nxN-23" style="edgeStyle=orthogonalEdgeStyle;rounded=1;orthogonalLoop=1;jettySize=auto;html=1;entryX=0;entryY=0.5;entryDx=0;entryDy=0;endArrow=none;endFill=0;exitX=0.5;exitY=1;exitDx=0;exitDy=0;" parent="1" source="sPYCTpjB2aresk962nxN-2" target="sPYCTpjB2aresk962nxN-21" edge="1">
          <mxGeometry relative="1" as="geometry">
            <mxPoint x="540" y="460" as="sourcePoint" />
          </mxGeometry>
        </mxCell>
        <mxCell id="1v41JAkAnK8wyEBZBxz8-31" style="edgeStyle=orthogonalEdgeStyle;rounded=1;orthogonalLoop=1;jettySize=auto;html=1;exitX=0.5;exitY=0;exitDx=0;exitDy=0;entryX=1;entryY=0.5;entryDx=0;entryDy=0;endArrow=none;endFill=0;" edge="1" parent="1" source="sPYCTpjB2aresk962nxN-2" target="sPYCTpjB2aresk962nxN-79">
          <mxGeometry relative="1" as="geometry" />
        </mxCell>
        <mxCell id="1v41JAkAnK8wyEBZBxz8-43" style="edgeStyle=orthogonalEdgeStyle;rounded=1;orthogonalLoop=1;jettySize=auto;html=1;exitX=0.5;exitY=1;exitDx=0;exitDy=0;entryX=0;entryY=0.5;entryDx=0;entryDy=0;endArrow=none;endFill=0;" edge="1" parent="1" source="sPYCTpjB2aresk962nxN-2" target="1v41JAkAnK8wyEBZBxz8-25">
          <mxGeometry relative="1" as="geometry" />
        </mxCell>
        <mxCell id="sPYCTpjB2aresk962nxN-2" value="TypeInfo" style="whiteSpace=wrap;html=1;align=center;rounded=1;" parent="1" vertex="1">
          <mxGeometry x="550" y="370" width="100" height="40" as="geometry" />
        </mxCell>
        <mxCell id="1v41JAkAnK8wyEBZBxz8-37" style="edgeStyle=orthogonalEdgeStyle;rounded=1;orthogonalLoop=1;jettySize=auto;html=1;exitX=1;exitY=0.5;exitDx=0;exitDy=0;entryX=0.5;entryY=0;entryDx=0;entryDy=0;endArrow=none;endFill=0;" edge="1" parent="1" source="sPYCTpjB2aresk962nxN-5" target="sPYCTpjB2aresk962nxN-45">
          <mxGeometry relative="1" as="geometry" />
        </mxCell>
        <mxCell id="sPYCTpjB2aresk962nxN-5" value="&lt;u&gt;LayoutOrder&lt;br&gt;&lt;/u&gt;" style="ellipse;whiteSpace=wrap;html=1;" parent="1" vertex="1">
          <mxGeometry x="40" y="330" width="90" height="40" as="geometry" />
        </mxCell>
        <mxCell id="sPYCTpjB2aresk962nxN-21" value="KeyToActuals" style="ellipse;whiteSpace=wrap;html=1;" parent="1" vertex="1">
          <mxGeometry x="640" y="460" width="100" height="40" as="geometry" />
        </mxCell>
        <mxCell id="1v41JAkAnK8wyEBZBxz8-10" style="edgeStyle=orthogonalEdgeStyle;rounded=1;orthogonalLoop=1;jettySize=auto;html=1;exitX=1;exitY=0.5;exitDx=0;exitDy=0;endArrow=none;endFill=0;" edge="1" parent="1" target="1v41JAkAnK8wyEBZBxz8-5">
          <mxGeometry relative="1" as="geometry">
            <mxPoint x="700" y="420" as="sourcePoint" />
          </mxGeometry>
        </mxCell>
        <mxCell id="1v41JAkAnK8wyEBZBxz8-40" style="edgeStyle=orthogonalEdgeStyle;rounded=1;orthogonalLoop=1;jettySize=auto;html=1;exitX=1;exitY=0.5;exitDx=0;exitDy=0;entryX=0;entryY=0.5;entryDx=0;entryDy=0;endArrow=none;endFill=0;" edge="1" parent="1" source="sPYCTpjB2aresk962nxN-45" target="1v41JAkAnK8wyEBZBxz8-35">
          <mxGeometry relative="1" as="geometry" />
        </mxCell>
        <mxCell id="1v41JAkAnK8wyEBZBxz8-42" style="edgeStyle=orthogonalEdgeStyle;rounded=1;orthogonalLoop=1;jettySize=auto;html=1;exitX=1;exitY=0.5;exitDx=0;exitDy=0;entryX=0;entryY=0.5;entryDx=0;entryDy=0;endArrow=none;endFill=0;" edge="1" parent="1" source="sPYCTpjB2aresk962nxN-45" target="1v41JAkAnK8wyEBZBxz8-36">
          <mxGeometry relative="1" as="geometry" />
        </mxCell>
        <mxCell id="sPYCTpjB2aresk962nxN-45" value="Exersize item" style="whiteSpace=wrap;html=1;align=center;rounded=1;" parent="1" vertex="1">
          <mxGeometry x="120" y="385" width="100" height="40" as="geometry" />
        </mxCell>
        <mxCell id="sPYCTpjB2aresk962nxN-64" style="edgeStyle=orthogonalEdgeStyle;rounded=1;orthogonalLoop=1;jettySize=auto;html=1;exitX=0;exitY=0.5;exitDx=0;exitDy=0;entryX=1;entryY=0.5;entryDx=0;entryDy=0;endArrow=none;endFill=0;" parent="1" source="sPYCTpjB2aresk962nxN-54" target="sPYCTpjB2aresk962nxN-45" edge="1">
          <mxGeometry relative="1" as="geometry" />
        </mxCell>
        <mxCell id="sPYCTpjB2aresk962nxN-54" value="Instructions" style="ellipse;whiteSpace=wrap;html=1;align=center;" parent="1" vertex="1">
          <mxGeometry x="280" y="385" width="100" height="40" as="geometry" />
        </mxCell>
        <mxCell id="sPYCTpjB2aresk962nxN-65" style="edgeStyle=orthogonalEdgeStyle;rounded=1;orthogonalLoop=1;jettySize=auto;html=1;exitX=0;exitY=0.5;exitDx=0;exitDy=0;entryX=1;entryY=0.5;entryDx=0;entryDy=0;endArrow=none;endFill=0;" parent="1" source="sPYCTpjB2aresk962nxN-55" target="sPYCTpjB2aresk962nxN-45" edge="1">
          <mxGeometry relative="1" as="geometry">
            <mxPoint x="240" y="460" as="targetPoint" />
          </mxGeometry>
        </mxCell>
        <mxCell id="sPYCTpjB2aresk962nxN-55" value="Path to image" style="ellipse;whiteSpace=wrap;html=1;align=center;" parent="1" vertex="1">
          <mxGeometry x="280" y="430" width="100" height="40" as="geometry" />
        </mxCell>
        <mxCell id="sPYCTpjB2aresk962nxN-63" style="edgeStyle=orthogonalEdgeStyle;rounded=1;orthogonalLoop=1;jettySize=auto;html=1;exitX=0;exitY=0.5;exitDx=0;exitDy=0;entryX=1;entryY=0.5;entryDx=0;entryDy=0;endArrow=none;endFill=0;" parent="1" source="sPYCTpjB2aresk962nxN-62" target="sPYCTpjB2aresk962nxN-45" edge="1">
          <mxGeometry relative="1" as="geometry" />
        </mxCell>
        <mxCell id="sPYCTpjB2aresk962nxN-62" value="Estimated length" style="ellipse;whiteSpace=wrap;html=1;align=center;" parent="1" vertex="1">
          <mxGeometry x="280" y="480" width="100" height="40" as="geometry" />
        </mxCell>
        <mxCell id="sPYCTpjB2aresk962nxN-73" value="Setting, Just be a json" style="text;strokeColor=none;fillColor=none;spacingLeft=4;spacingRight=4;overflow=hidden;rotatable=0;points=[[0,0.5],[1,0.5]];portConstraint=eastwest;fontSize=12;whiteSpace=wrap;html=1;" parent="1" vertex="1">
          <mxGeometry x="245" y="200" width="180" height="30" as="geometry" />
        </mxCell>
        <mxCell id="1v41JAkAnK8wyEBZBxz8-6" style="edgeStyle=orthogonalEdgeStyle;rounded=1;orthogonalLoop=1;jettySize=auto;html=1;exitX=1;exitY=0.5;exitDx=0;exitDy=0;entryX=0.5;entryY=0;entryDx=0;entryDy=0;endArrow=none;endFill=0;" edge="1" parent="1" target="sPYCTpjB2aresk962nxN-31">
          <mxGeometry relative="1" as="geometry">
            <mxPoint x="579.9999999999998" y="375" as="sourcePoint" />
          </mxGeometry>
        </mxCell>
        <mxCell id="sPYCTpjB2aresk962nxN-80" style="edgeStyle=orthogonalEdgeStyle;rounded=1;orthogonalLoop=1;jettySize=auto;html=1;exitX=0.5;exitY=1;exitDx=0;exitDy=0;entryX=0.5;entryY=0;entryDx=0;entryDy=0;endArrow=none;endFill=0;" parent="1" target="sPYCTpjB2aresk962nxN-76" edge="1">
          <mxGeometry relative="1" as="geometry">
            <mxPoint x="555" y="330" as="sourcePoint" />
          </mxGeometry>
        </mxCell>
        <mxCell id="sPYCTpjB2aresk962nxN-79" value="&lt;u&gt;IndexNum&lt;/u&gt;" style="ellipse;whiteSpace=wrap;html=1;" parent="1" vertex="1">
          <mxGeometry x="460" y="310" width="100" height="40" as="geometry" />
        </mxCell>
        <mxCell id="sPYCTpjB2aresk962nxN-82" value="Exersize Catalog" style="text;strokeColor=none;fillColor=none;spacingLeft=4;spacingRight=4;overflow=hidden;rotatable=0;points=[[0,0.5],[1,0.5]];portConstraint=eastwest;fontSize=12;whiteSpace=wrap;html=1;" parent="1" vertex="1">
          <mxGeometry x="130" y="250" width="150" height="30" as="geometry" />
        </mxCell>
        <mxCell id="sPYCTpjB2aresk962nxN-83" value="Tracking Catalog" style="text;strokeColor=none;fillColor=none;spacingLeft=4;spacingRight=4;overflow=hidden;rotatable=0;points=[[0,0.5],[1,0.5]];portConstraint=eastwest;fontSize=12;whiteSpace=wrap;html=1;" parent="1" vertex="1">
          <mxGeometry x="490" y="260" width="100" height="30" as="geometry" />
        </mxCell>
        <mxCell id="1v41JAkAnK8wyEBZBxz8-11" value="" style="endArrow=none;html=1;rounded=0;" edge="1" parent="1">
          <mxGeometry width="50" height="50" relative="1" as="geometry">
            <mxPoint x="440" y="1100" as="sourcePoint" />
            <mxPoint x="440" y="240" as="targetPoint" />
          </mxGeometry>
        </mxCell>
        <mxCell id="1v41JAkAnK8wyEBZBxz8-13" value="" style="endArrow=none;html=1;rounded=0;" edge="1" parent="1">
          <mxGeometry width="50" height="50" relative="1" as="geometry">
            <mxPoint y="240" as="sourcePoint" />
            <mxPoint x="440" y="240" as="targetPoint" />
          </mxGeometry>
        </mxCell>
        <mxCell id="1v41JAkAnK8wyEBZBxz8-14" value="" style="endArrow=none;html=1;rounded=0;" edge="1" parent="1">
          <mxGeometry width="50" height="50" relative="1" as="geometry">
            <mxPoint x="425" y="240" as="sourcePoint" />
            <mxPoint x="865" y="240" as="targetPoint" />
          </mxGeometry>
        </mxCell>
        <mxCell id="1v41JAkAnK8wyEBZBxz8-25" value="TimesDone" style="ellipse;whiteSpace=wrap;html=1;align=center;" vertex="1" parent="1">
          <mxGeometry x="640" y="500" width="100" height="40" as="geometry" />
        </mxCell>
        <mxCell id="1v41JAkAnK8wyEBZBxz8-47" style="edgeStyle=orthogonalEdgeStyle;rounded=1;orthogonalLoop=1;jettySize=auto;html=1;exitX=1;exitY=0.5;exitDx=0;exitDy=0;endArrow=none;endFill=0;" edge="1" parent="1" source="1v41JAkAnK8wyEBZBxz8-27">
          <mxGeometry relative="1" as="geometry">
            <mxPoint x="600" y="410" as="targetPoint" />
          </mxGeometry>
        </mxCell>
        <mxCell id="1v41JAkAnK8wyEBZBxz8-27" value="Repition" style="ellipse;whiteSpace=wrap;html=1;align=center;" vertex="1" parent="1">
          <mxGeometry x="470" y="500" width="100" height="40" as="geometry" />
        </mxCell>
        <mxCell id="1v41JAkAnK8wyEBZBxz8-46" style="edgeStyle=orthogonalEdgeStyle;rounded=1;orthogonalLoop=1;jettySize=auto;html=1;exitX=1;exitY=0.5;exitDx=0;exitDy=0;endArrow=none;endFill=0;" edge="1" parent="1" source="1v41JAkAnK8wyEBZBxz8-28">
          <mxGeometry relative="1" as="geometry">
            <mxPoint x="600" y="410" as="targetPoint" />
          </mxGeometry>
        </mxCell>
        <mxCell id="1v41JAkAnK8wyEBZBxz8-28" value="TimesDone" style="ellipse;whiteSpace=wrap;html=1;align=center;" vertex="1" parent="1">
          <mxGeometry x="470" y="540" width="100" height="40" as="geometry" />
        </mxCell>
        <mxCell id="1v41JAkAnK8wyEBZBxz8-44" style="edgeStyle=orthogonalEdgeStyle;rounded=1;orthogonalLoop=1;jettySize=auto;html=1;exitX=0;exitY=0.5;exitDx=0;exitDy=0;endArrow=none;endFill=0;" edge="1" parent="1" source="1v41JAkAnK8wyEBZBxz8-29">
          <mxGeometry relative="1" as="geometry">
            <mxPoint x="600" y="410" as="targetPoint" />
          </mxGeometry>
        </mxCell>
        <mxCell id="1v41JAkAnK8wyEBZBxz8-29" value="LenghtActual" style="ellipse;whiteSpace=wrap;html=1;align=center;" vertex="1" parent="1">
          <mxGeometry x="640" y="540" width="100" height="40" as="geometry" />
        </mxCell>
        <mxCell id="1v41JAkAnK8wyEBZBxz8-33" style="edgeStyle=orthogonalEdgeStyle;rounded=1;orthogonalLoop=1;jettySize=auto;html=1;exitX=1;exitY=0.5;exitDx=0;exitDy=0;entryX=0.5;entryY=1;entryDx=0;entryDy=0;endArrow=none;endFill=0;" edge="1" parent="1" source="1v41JAkAnK8wyEBZBxz8-32" target="sPYCTpjB2aresk962nxN-2">
          <mxGeometry relative="1" as="geometry" />
        </mxCell>
        <mxCell id="1v41JAkAnK8wyEBZBxz8-32" value="UnixTimestamp" style="ellipse;whiteSpace=wrap;html=1;" vertex="1" parent="1">
          <mxGeometry x="470" y="420" width="100" height="40" as="geometry" />
        </mxCell>
        <mxCell id="1v41JAkAnK8wyEBZBxz8-38" style="edgeStyle=orthogonalEdgeStyle;rounded=1;orthogonalLoop=1;jettySize=auto;html=1;exitX=0;exitY=0.5;exitDx=0;exitDy=0;entryX=1;entryY=0.5;entryDx=0;entryDy=0;endArrow=none;endFill=0;" edge="1" parent="1" source="1v41JAkAnK8wyEBZBxz8-34" target="sPYCTpjB2aresk962nxN-45">
          <mxGeometry relative="1" as="geometry" />
        </mxCell>
        <mxCell id="1v41JAkAnK8wyEBZBxz8-34" value="Catigory" style="ellipse;whiteSpace=wrap;html=1;align=center;" vertex="1" parent="1">
          <mxGeometry x="280" y="300" width="100" height="40" as="geometry" />
        </mxCell>
        <mxCell id="1v41JAkAnK8wyEBZBxz8-35" value="Name" style="ellipse;whiteSpace=wrap;html=1;align=center;" vertex="1" parent="1">
          <mxGeometry x="280" y="345" width="100" height="40" as="geometry" />
        </mxCell>
        <mxCell id="1v41JAkAnK8wyEBZBxz8-36" value="Weighting" style="ellipse;whiteSpace=wrap;html=1;align=center;" vertex="1" parent="1">
          <mxGeometry x="280" y="520" width="100" height="40" as="geometry" />
        </mxCell>
        <mxCell id="1v41JAkAnK8wyEBZBxz8-49" style="edgeStyle=orthogonalEdgeStyle;rounded=1;orthogonalLoop=1;jettySize=auto;html=1;exitX=1;exitY=0.5;exitDx=0;exitDy=0;endArrow=none;endFill=0;" edge="1" parent="1" source="1v41JAkAnK8wyEBZBxz8-48" target="sPYCTpjB2aresk962nxN-2">
          <mxGeometry relative="1" as="geometry" />
        </mxCell>
        <mxCell id="1v41JAkAnK8wyEBZBxz8-48" value="Difficulty" style="ellipse;whiteSpace=wrap;html=1;align=center;" vertex="1" parent="1">
          <mxGeometry x="470" y="460" width="100" height="40" as="geometry" />
        </mxCell>
      </root>
    </mxGraphModel>
  </diagram>
</mxfile>
